<svg width="32" height="32" viewBox="0 0 32 32" fill="none" xmlns="http://www.w3.org/2000/svg">
<path d="M16 21.3333C15.8246 21.3343 15.6506 21.3006 15.4882 21.2343C15.3257 21.1679 15.178 21.0702 15.0534 20.9466L7.05338 12.9466C6.80231 12.6955 6.66125 12.355 6.66125 11.9999C6.66125 11.6449 6.80231 11.3043 7.05338 11.0533C7.30445 10.8022 7.64498 10.6611 8.00004 10.6611C8.35511 10.6611 8.69564 10.8022 8.94671 11.0533L16 18.1199L23.0534 11.0666C23.3084 10.8482 23.6365 10.734 23.9721 10.747C24.3077 10.7599 24.626 10.899 24.8635 11.1365C25.1009 11.374 25.24 11.6923 25.253 12.0279C25.266 12.3634 25.1518 12.6915 24.9334 12.9466L16.9334 20.9466C16.685 21.1929 16.3498 21.3318 16 21.3333Z" fill="white"/>
</svg>
