<svg width="417" height="182" viewBox="0 0 417 182" fill="none" xmlns="http://www.w3.org/2000/svg">
<path fill-rule="evenodd" clip-rule="evenodd" d="M124.307 61.1742V113.513L123.094 113.779C116.652 115.196 111.419 118.005 107.14 122.344C103.803 125.727 101.808 128.905 100.146 133.481C99.0835 136.41 98.9697 137.316 98.9653 142.906C98.9613 147.815 99.1315 149.591 99.7901 151.52C102.693 160.022 107.705 165.895 115.27 169.66C123.654 173.832 133.156 173.706 141.939 169.307C146.141 167.203 151.69 161.845 153.955 157.704C160.955 144.909 158.042 129.405 146.887 120.085C144.375 117.986 138.578 115.059 135.547 114.36C134.335 114.08 133.095 113.785 132.792 113.704C132.355 113.588 132.241 102.713 132.241 61.1962V8.83545H128.274H124.307V61.1742ZM195.276 56.3149V103.794L194.064 104.068C188.571 105.307 184.84 107.009 181.204 109.934C177.49 112.921 174.733 116.346 172.746 120.441C164.873 136.672 173.25 155.898 190.648 161.527C193.459 162.437 195.112 162.677 198.802 162.712C204.475 162.765 207.079 162.171 212.428 159.605C219.31 156.304 224.697 150.158 227.322 142.612C228.959 137.904 229.219 131.378 227.967 126.417C225.156 115.277 217.139 107.21 206.122 104.437L203.21 103.704V56.2694V8.83545H199.243H195.276V56.3149ZM8.37537 133.618V171.399H14.767H21.1587V144.452C21.1587 129.631 21.3072 117.511 21.4893 117.517C21.6713 117.523 27.0765 125.47 33.5012 135.175C39.9259 144.881 45.2816 152.821 45.4029 152.819C45.5241 152.818 50.979 144.822 57.5249 135.05L69.4266 117.284L69.5404 144.342L69.6537 171.399H76.2626H82.8711V133.618V95.8376L75.7367 95.9591L68.6028 96.0806L57.2918 113.684C51.0707 123.366 45.8216 131.287 45.6272 131.285C45.4328 131.284 40.182 123.362 33.9587 113.682L22.6437 96.0806L15.5098 95.9591L8.37537 95.8376V133.618ZM340.515 114.324C335.429 116.086 331.283 119.715 328.52 124.819L327.1 127.445L327.088 120.929L327.076 114.413H320.685H314.293V142.906V171.399H320.685H327.076L327.08 159.361C327.082 152.74 327.289 146.049 327.541 144.491C329.211 134.182 335.243 128.034 344.378 127.333L347.353 127.105V120.318V113.53L345.039 113.544C343.766 113.552 341.73 113.903 340.515 114.324ZM374.683 114.219C362.587 117.58 354.78 127.876 354.088 141.38C353.606 150.777 356.329 158.407 362.293 164.372C368.371 170.453 375.347 172.998 384.821 172.592C390.536 172.347 394.587 171.209 398.777 168.669C401.899 166.777 406.062 163.061 405.891 162.319C405.819 162.002 404.186 160.356 402.262 158.662L398.765 155.58L396.752 157.237C392.38 160.834 388.77 162.15 383.244 162.16C375.538 162.174 370.061 158.31 367.66 151.166C367.158 149.675 366.749 148.251 366.749 148C366.749 147.693 373.579 147.544 387.636 147.544H408.525L408.809 145.643C408.966 144.597 408.89 141.937 408.64 139.731C407.223 127.187 400.934 118.308 390.993 114.812C387.266 113.502 378.421 113.18 374.683 114.219ZM378.178 124.268C375.281 125.088 372.331 126.946 370.751 128.947C369.015 131.143 367.318 134.845 366.933 137.274L366.636 139.151H381.431H396.227L395.967 137.494C395.065 131.751 391.709 126.948 387.199 124.949C384.744 123.86 380.696 123.555 378.178 124.268Z" fill="#2C353B"/>
<path fill-rule="evenodd" clip-rule="evenodd" d="M124.307 61.1742V113.513L123.094 113.779C116.652 115.196 111.419 118.005 107.139 122.344C103.803 125.727 101.808 128.905 100.146 133.481C99.0834 136.41 98.9696 137.316 98.9652 142.906C98.9612 147.815 99.1314 149.591 99.79 151.52C102.693 160.022 107.705 165.895 115.27 169.66C123.654 173.832 133.156 173.706 141.939 169.307C146.141 167.203 151.69 161.845 153.955 157.704C160.955 144.909 158.042 129.405 146.887 120.085C144.375 117.986 138.578 115.059 135.547 114.36C134.335 114.08 133.095 113.785 132.792 113.704C132.355 113.588 132.241 102.713 132.241 61.1962V8.83545H128.274H124.307V61.1742Z" fill="#006AA5"/>
<path fill-rule="evenodd" clip-rule="evenodd" d="M195.276 56.3149V103.794L194.064 104.068C188.571 105.307 184.84 107.009 181.204 109.934C177.49 112.921 174.733 116.346 172.746 120.441C164.873 136.672 173.249 155.898 190.648 161.527C193.459 162.437 195.112 162.677 198.802 162.712C204.475 162.765 207.079 162.171 212.428 159.605C219.31 156.304 224.697 150.158 227.321 142.612C228.959 137.903 229.219 131.378 227.967 126.417C225.156 115.277 217.139 107.21 206.121 104.437L203.21 103.704V56.2694V8.83545H199.243H195.276V56.3149Z" fill="#008ECF"/>
<path fill-rule="evenodd" clip-rule="evenodd" d="M266.623 48.8052V96.2847L265.41 96.5581C259.918 97.7977 256.186 99.4997 252.551 102.424C248.836 105.412 246.079 108.837 244.093 112.932C236.219 129.162 244.596 148.388 261.994 154.018C264.806 154.927 266.459 155.167 270.149 155.202C275.822 155.255 278.425 154.661 283.775 152.096C290.657 148.794 296.043 142.648 298.668 135.102C300.306 130.394 300.566 123.868 299.314 118.907C296.503 107.767 288.485 99.7003 277.468 96.927L274.557 96.1941V48.7597V8.83545H270.59H266.623V48.8052Z" fill="#00AAE3"/>
</svg>
