<svg width="32" height="32" viewBox="0 0 32 32" fill="none" xmlns="http://www.w3.org/2000/svg">
<path d="M16 10.6667C15.8246 10.6657 15.6506 10.6994 15.4882 10.7657C15.3257 10.8321 15.178 10.9298 15.0534 11.0534L7.05338 19.0534C6.80231 19.3045 6.66125 19.645 6.66125 20.0001C6.66125 20.3551 6.80231 20.6957 7.05338 20.9467C7.30445 21.1978 7.64498 21.3389 8.00004 21.3389C8.35511 21.3389 8.69564 21.1978 8.94671 20.9467L16 13.8801L23.0534 20.9334C23.3084 21.1518 23.6365 21.266 23.9721 21.253C24.3077 21.2401 24.626 21.101 24.8635 20.8635C25.1009 20.626 25.24 20.3077 25.253 19.9721C25.266 19.6366 25.1518 19.3085 24.9334 19.0534L16.9334 11.0534C16.685 10.8071 16.3498 10.6682 16 10.6667Z" fill="#008ECF"/>
</svg>
