<svg xmlns="http://www.w3.org/2000/svg" width="222.543" height="100.46" viewBox="0 0 222.543 100.46">
  <path id="Path_3101" data-name="Path 3101" d="M991.42,4.61a11.528,11.528,0,0,1,2.16,1.92,3.017,3.017,0,0,0,1.89,1.02.723.723,0,0,0,.84-.36,1.35,1.35,0,0,0,.39-1.2,2.163,2.163,0,0,0-.93-1.41,3.667,3.667,0,0,0-1.56-.57A3.427,3.427,0,0,0,991.42,4.61ZM978.67,18.26a11.962,11.962,0,0,0-1.2-2.88,61.082,61.082,0,0,0,4.11-7.56,1.031,1.031,0,0,0-.09-1.29,8.61,8.61,0,0,0-3.39-2.64.958.958,0,0,0-1.08.15,6.826,6.826,0,0,0-1.32,1.32,1.629,1.629,0,0,0-.27,1.02,13.844,13.844,0,0,0,.21,1.5,3.191,3.191,0,0,1,.09,1.83,27.193,27.193,0,0,1-4.44,10.44.611.611,0,0,0-.27.63,6.858,6.858,0,0,0,.48,1.65,2.308,2.308,0,0,0,1.17-.69,39.121,39.121,0,0,0,3-3.84,7.8,7.8,0,0,1,.54,3.3,15.566,15.566,0,0,1-.6,3.36,1.9,1.9,0,0,0,.27,1.62,8.011,8.011,0,0,0,2.79,2.31.553.553,0,0,0,.57-.03.562.562,0,0,0,.3-.54c.15-3.42.21-6.39.18-9a3.208,3.208,0,0,1,.66-1.17,5.314,5.314,0,0,0,3.09-1.17,14.2,14.2,0,0,1,2.67-1.65,40.117,40.117,0,0,0,4.44,9.3,12.736,12.736,0,0,0,3.57,3.84A6.091,6.091,0,0,0,997,29.39a.9.9,0,0,0,.93-.36,5.319,5.319,0,0,0,.87-1.62,1.777,1.777,0,0,0-.03-1.41c-.03-.03-.15-.36-.42-.96a4.578,4.578,0,0,0-.45-.99,26.235,26.235,0,0,1-1.98-6.21,6.546,6.546,0,0,0-1.74-3.18,17.138,17.138,0,0,0,.51,3.72,21.289,21.289,0,0,1,.6,5.91,20.072,20.072,0,0,1-5.43-10.83c.39-.15.9-.33,1.53-.51a14.077,14.077,0,0,0,3.27-1.53.891.891,0,0,0,.39-.6.762.762,0,0,0-.15-.66,7.3,7.3,0,0,0-1.98-2.1,1.43,1.43,0,0,0-.93-.21,1.65,1.65,0,0,0-.9.33,9.967,9.967,0,0,1-2.01,1.44,10.194,10.194,0,0,1-.33-4.44,2.279,2.279,0,0,0-1.14-2.4A12.727,12.727,0,0,0,983.23.95a1,1,0,0,0-.99.39c-.21.27-.42.54-.69.9a.781.781,0,0,0,0,1.05,8.353,8.353,0,0,0,1.65,2.07,3.481,3.481,0,0,1,.96,1.71,33.247,33.247,0,0,0,.87,4.56c-1.23.93-2.43,1.86-3.63,2.82A10.323,10.323,0,0,0,978.67,18.26Zm30.78-4.98c.33-.15.69-.33,1.08-.51l-.03.3Zm8.67,5.55,1.44-.57a3.625,3.625,0,0,1-.48.75Zm-6.39,1.23a12.324,12.324,0,0,1,3.45.99l1.47.66a11.1,11.1,0,0,1-4.11,2.58,2.626,2.626,0,0,1-.6.06A11.5,11.5,0,0,1,1011.73,20.06Zm-1.11-18.39a.713.713,0,0,0,0,1.08l.6.48a.966.966,0,0,1,.21.75l-.18,1.32a37.961,37.961,0,0,1-4.32,1.2.644.644,0,0,0-.66.57l-.3.69c1.56.06,3.03.15,4.38.3l.51-.12-.09.84a31.667,31.667,0,0,1-3.87,1.14,3.44,3.44,0,0,0-.72,1.65l.36.15a19.282,19.282,0,0,0,4.08-.87l-.03.51a38.676,38.676,0,0,1-4.62,3.21l-2.22.42a.732.732,0,0,0-.66.57l-.51,1.83a.958.958,0,0,0,1.23.36,28.9,28.9,0,0,1,5.52-2.1c-2.13,2.82-4.32,5.49-6.6,8.04a1.628,1.628,0,0,1-1.62.27,4.9,4.9,0,0,0,.18,1.62,1.561,1.561,0,0,0,.72.6,1.6,1.6,0,0,0,.99-.03,3.728,3.728,0,0,0,1.14-.72c1.32-1.35,2.73-2.76,4.26-4.14a16.057,16.057,0,0,0-.33,2.61,4.028,4.028,0,0,0,.45,2.4,5.08,5.08,0,0,0,1.98,2.31,1.916,1.916,0,0,0,1.47-.12,17.127,17.127,0,0,0,6.78-5.85l8.07,3.45a1.365,1.365,0,0,0,1.08-.09,2.591,2.591,0,0,0,.99-2.13,7.3,7.3,0,0,0-2.55-3.78,1.99,1.99,0,0,0-1.11-.3,10.9,10.9,0,0,1-3-.21l-1.71-.33.6-1.68c.42-.24.81-.51,1.26-.78a.834.834,0,0,0,.39-.57.868.868,0,0,0-.15-.69,5.386,5.386,0,0,0-2.7-1.86,5.447,5.447,0,0,0-2.31-.03,6.075,6.075,0,0,0,.21,1.77,12.152,12.152,0,0,1-3.24,2.7l-.96-.15a2.158,2.158,0,0,0-.87.09l-.69.3.39-1.11a20.2,20.2,0,0,1,4.68-3.6,56.131,56.131,0,0,1,6.48-1.05,1.791,1.791,0,0,0,.3-.81.861.861,0,0,0-.27-.69,6.026,6.026,0,0,0-2.97-1.74,1.41,1.41,0,0,0-1.05.06,26.672,26.672,0,0,1-4.41,1.89l.15-.96a18.474,18.474,0,0,1,4.95-2.01.466.466,0,0,0,.39-.51.393.393,0,0,0-.24-.48l-.93-.72a1.093,1.093,0,0,0-1.05-.09,14.831,14.831,0,0,1-2.64.99l.15-.84,4.38-1.26a.583.583,0,0,0,.51-.57.731.731,0,0,0-.36-.72l-1.41-.78a.86.86,0,0,0-1.05-.09l-1.41.54.21-.57a1.521,1.521,0,0,0-.6-1.59,6.578,6.578,0,0,0-4.02-1.23,1.365,1.365,0,0,0-.93.51Zm27.48,12.81a4.5,4.5,0,0,1-.06-1.05,2.922,2.922,0,0,1,1.26-.33A8.212,8.212,0,0,0,1038.1,14.48Zm.21,1.98a51.84,51.84,0,0,1,3.96-3.57l-.03,1.74a39.483,39.483,0,0,0-3.87,2.19Zm1.08-10.95c1.08,0,2.13-.06,3.15-.15l-.06,2.13-.69-.3c-1.2.33-2.28.69-3.24,1.05A19.289,19.289,0,0,1,1039.39,5.51Zm-1.35,6.33a13.313,13.313,0,0,1,.18-2.13,27.868,27.868,0,0,0,3.33.18,1.182,1.182,0,0,0,.84-.21l-.03,1.65-.57-.48a.773.773,0,0,0-.87-.12C1040.44,10.91,1039.45,11.3,1038.04,11.84Zm7.77,8.85V11.75a14.89,14.89,0,0,1,4.59-1.71,29.012,29.012,0,0,0-1.62,4.26,4.213,4.213,0,0,0-1.02-.39l-1.38-.18h-.39l-.06.36c-.03.03-.06-.24-.06-.81.57.87.66,1.32.21,1.32a9.811,9.811,0,0,0,2.04,1.71l-.81,2.43A3.434,3.434,0,0,1,1045.81,20.69Zm-13.17,3.72.69-.18a60.152,60.152,0,0,1,8.94-7.23l-.21,3.6a7.694,7.694,0,0,1-.18,2.37,10,10,0,0,0,.06,2.31,6.21,6.21,0,0,0,2.37,3.24l.87-.69a2,2,0,0,0,.6-1.53l.03-4.05.42.27a.707.707,0,0,0,.99.03,16.611,16.611,0,0,0,3.96-3.51c.99,1.11,1.83,2.07,2.49,2.85a19.539,19.539,0,0,0,3.87,3.84.891.891,0,0,0,.57,0,.883.883,0,0,0,.3-.36l.48-1.5a1.979,1.979,0,0,0,.09-1.44,24.043,24.043,0,0,0-1.2-3.12,3.112,3.112,0,0,0-1.26-1.23l-3.72-1.89a14.506,14.506,0,0,0,.66-1.92,9.117,9.117,0,0,1,2.04-4.14,1.335,1.335,0,0,0,.06-.84,11.614,11.614,0,0,0-3.12-3.27.95.95,0,0,0-1.08.03,17.751,17.751,0,0,0-1.95,1.56,22.2,22.2,0,0,1-3.57,2.85V6.74a.963.963,0,0,0-.24-.9l-.66-.75a9.311,9.311,0,0,0,3.36-.96.8.8,0,0,0,.6-.45.54.54,0,0,0-.03-.66,8.079,8.079,0,0,0-2.91-2.25,2.072,2.072,0,0,0-1.35-.03,19.66,19.66,0,0,0-2.04.63,28.39,28.39,0,0,1-7.2,1.59,3.407,3.407,0,0,0-1.26.27,4.258,4.258,0,0,0-1.35.72,6.627,6.627,0,0,0,3.81,2.1l.57-.15a23.571,23.571,0,0,0-2.49,6.42,8.862,8.862,0,0,0-.24,2.97,5.976,5.976,0,0,0,.69,2.22,8.169,8.169,0,0,0-1.32,1.68l-1.53.72-.69.12-.57.87a.585.585,0,0,0,0,.69,3.49,3.49,0,0,1,.72,1.41A2.505,2.505,0,0,0,1032.64,24.41Zm48.42-9.6,1.23-.15a20.215,20.215,0,0,1-.24,3.99,3.7,3.7,0,0,1-.27.87l-.6-.36Zm-.15-2.37a1.664,1.664,0,0,0-1.32-.93,36.638,36.638,0,0,1,4.74-1.26,1.15,1.15,0,0,1,1.2.39,4.259,4.259,0,0,1-1.56,2.04l-.39-.15c-1.5.48-2.37.78-2.61.87Zm-2.55-5.04a5.723,5.723,0,0,0-3,.48.54.54,0,0,1-.6,0l-.48-.27a2.915,2.915,0,0,0-.78,1.08.55.55,0,0,0,.06.87,2.09,2.09,0,0,0,.54.6.672.672,0,0,0,.96-.06A22.417,22.417,0,0,1,1078.36,7.4Zm-13.89,20.82a2.816,2.816,0,0,0,1.17-2.16,4.831,4.831,0,0,0-1.14-2.1,16.584,16.584,0,0,1-2.52-4.11,7.279,7.279,0,0,0-1.05,3.12,3.958,3.958,0,0,0,.12,1.68,6.228,6.228,0,0,0,1.2,2.4l.87.81A2.523,2.523,0,0,0,1064.47,28.22Zm5.94-12.18a20.377,20.377,0,0,0-1.89,3.45,1.014,1.014,0,0,1-.78.69,1.931,1.931,0,0,0-1.65-.84.624.624,0,0,0-.57.27l-.3.54a1.81,1.81,0,0,0-.18,1.65,4.825,4.825,0,0,0,2.46,2.88,1.161,1.161,0,0,0,.54-1.05,2.788,2.788,0,0,1,.24-1.35,1.564,1.564,0,0,0,.69.15,1.454,1.454,0,0,0,.99-.12.7.7,0,0,0,.57-.42,1.364,1.364,0,0,0,.09-.72,8.26,8.26,0,0,1-.12-2.28A11.43,11.43,0,0,0,1070.41,16.04Zm-5.79,3.87a35.841,35.841,0,0,1,5.94-5.01.9.9,0,0,0,.36-.96,2.037,2.037,0,0,0-1.11-1.32,2.159,2.159,0,0,0-1.05.24,10.555,10.555,0,0,1,2.19-3.06.5.5,0,0,0,.36-.72,1.824,1.824,0,0,0-.69-1.17,1.788,1.788,0,0,0-1.08-.36,15.08,15.08,0,0,0,1.59-4.35,5.744,5.744,0,0,0-2.43-1.8,1.963,1.963,0,0,0-.84.87,1.916,1.916,0,0,0-.12.75l.03.75a25.32,25.32,0,0,1-4.83,6.54,6.524,6.524,0,0,1-.72.24,5.828,5.828,0,0,0,.06,2.79.515.515,0,0,0,.3.48.681.681,0,0,0,.6.15,6.166,6.166,0,0,0,1.98-.84,3.463,3.463,0,0,1-1.59,2.52.665.665,0,0,0-.39.72,2.2,2.2,0,0,0,.45,1.47c.24.42.54.51.9.21a7.792,7.792,0,0,0,1.83-1.32A11.018,11.018,0,0,1,1064.62,19.91Zm8.01.57a8.414,8.414,0,0,0,1.5-6.54c1.32-.69,2.28-1.14,2.82-1.35a5.064,5.064,0,0,1,.51,2.16l-1.29.6a6.594,6.594,0,0,0-.48-1.2,1.511,1.511,0,0,0-1.17,1.17c.15.06.24.15.21.3a14.609,14.609,0,0,1-.87,4.59,1.366,1.366,0,0,0,.06,1.23,3.168,3.168,0,0,0,2.13,1.29,2.08,2.08,0,0,0,.57-1.11,11.7,11.7,0,0,0-.12-5.1l1.08-.57a54.9,54.9,0,0,1-.33,12.15.767.767,0,0,0,.36.84,9,9,0,0,0,3.48-3.12,29.941,29.941,0,0,0,.27-3.96,3.8,3.8,0,0,0,1.5,1.26,1.158,1.158,0,0,0,1.08.09,1.355,1.355,0,0,0,.72-.51,4.062,4.062,0,0,0,1.2-3.51,6.284,6.284,0,0,1,.48-3.09.946.946,0,0,0-.03-1.14,3.166,3.166,0,0,0-1.14-1.26,7.883,7.883,0,0,1,2.94-1.11.963.963,0,0,0,.75-.54.98.98,0,0,0-.12-1.44,18.349,18.349,0,0,0-1.65-1.77,2.633,2.633,0,0,0-2.22-.69c-.99.21-2.22.51-3.69.93a19.769,19.769,0,0,1,1.95-2.19,1.775,1.775,0,0,0-.51-1.17,4.575,4.575,0,0,0,1.65-.27c.18,0,.33-.09.45-.36a.636.636,0,0,0-.09-.66,5.35,5.35,0,0,0-1.98-1.59c-1.32.39-2.04.63-2.19.66a2.855,2.855,0,0,0,.03-1.26,7.873,7.873,0,0,0-3.36-1.98,2.451,2.451,0,0,0-.87.21c-.3.21-.6.42-.9.66a.572.572,0,0,0-.06.81,15.358,15.358,0,0,0,1.98,2.19,20.512,20.512,0,0,1-3.72.9l-.21-.09a2.548,2.548,0,0,0-.69,1.23.29.29,0,0,0,0,.42.57.57,0,0,0,.45.24c2.13-.18,4.29-.42,6.45-.78l.09.42a37.171,37.171,0,0,1-3.06,3.99c-1.65.54-2.76.96-3.33,1.2l-.06-.03c-.06-.06-.45-.48-1.2-1.26l.36,1.23a2.382,2.382,0,0,0-.72,1.11,12.311,12.311,0,0,1-.57,4.53,1.322,1.322,0,0,0-.06,1.17A7.065,7.065,0,0,0,1072.63,20.48Zm20.88-10.11a.589.589,0,0,0-.48.6,4.218,4.218,0,0,0-.09,1.53.39.39,0,0,0,.24.36.574.574,0,0,0,.54,0,20.744,20.744,0,0,1,3.15-1.35,37.659,37.659,0,0,1-4.26,9.21,2.439,2.439,0,0,1-1.11.75.671.671,0,0,0-.3.09.414.414,0,0,0-.18.33,5.864,5.864,0,0,0-.12,1.65.392.392,0,0,0,.21.36l.15.15a3.209,3.209,0,0,0,1.59-.81,11.636,11.636,0,0,0,2.55-2.91,19.448,19.448,0,0,1,.27,3.72,5.816,5.816,0,0,1-.12.81,1.665,1.665,0,0,0-.09,1.08,4.008,4.008,0,0,0,2.16,2.58,1.08,1.08,0,0,0,.96,0l.27-.27a.859.859,0,0,0,.18-.66,6.5,6.5,0,0,1-.09-1.83,44.644,44.644,0,0,1,2.25-11.01,15.43,15.43,0,0,0-3,4.17,6.44,6.44,0,0,1-.69-1.5c.54-.96,1.32-2.22,2.37-3.84.75-1.11,1.32-1.95,1.74-2.52a1.051,1.051,0,0,0,.12-1.35,2.7,2.7,0,0,0-1.59-1.47,11.72,11.72,0,0,0,2.46-2.85,1.008,1.008,0,0,0-.03-1.35A16.309,16.309,0,0,0,1099,1.43a.994.994,0,0,0-.72,0,5.455,5.455,0,0,0-1.14.87,1.082,1.082,0,0,0-.18.6,3.5,3.5,0,0,0,.36,1.14,1.556,1.556,0,0,1-.12.84A22.549,22.549,0,0,1,1093.51,10.37Zm12.42-6.21a13.2,13.2,0,0,0-1.56-1.8.474.474,0,0,0-.45-.21,1.241,1.241,0,0,0-.33.21l-.45.51a.787.787,0,0,0-.03.81,7.415,7.415,0,0,1,.39,2.13,3.611,3.611,0,0,1-.03,1.26,10.777,10.777,0,0,1-1.29,4.11.585.585,0,0,0-.09.75,4,4,0,0,0,1.23,2.07.856.856,0,0,0,.66.12.461.461,0,0,0,.48-.42,38.791,38.791,0,0,0,1.83-6.78,2.636,2.636,0,0,1,.45-1.2,8.914,8.914,0,0,1,1.98-1.17,30.46,30.46,0,0,0-.63,3.75,1.022,1.022,0,0,0,.06.78,1.758,1.758,0,0,0,.78,1.02,2.839,2.839,0,0,0,1.26.24l.51-.06a17.122,17.122,0,0,1-4.35,4.35c-.48.27-.84.48-1.11.6l-.9.33a1.232,1.232,0,0,0-.48.57l-.15.84.24.33c.18.33.42.36.66.09a12.9,12.9,0,0,1,3.87-1.5,29.38,29.38,0,0,1-1.5,3.15,27.87,27.87,0,0,0-3.12-.78,1.687,1.687,0,0,0-.84.12,3.6,3.6,0,0,0-1.29.9l.15.42a.564.564,0,0,0,.51.24.45.45,0,0,1,.54,0c1.02.39,1.95.75,2.76,1.14-.96,1.32-1.92,2.52-2.88,3.63a1.144,1.144,0,0,1-1.08.09l-.39-.15a.372.372,0,0,0-.45-.12c-.27,0-.39.12-.39.39a3.431,3.431,0,0,0,.06,1.65.688.688,0,0,0,.42.45.494.494,0,0,0,.6.03,13.248,13.248,0,0,0,6.99-4.44,25.91,25.91,0,0,1,4.47,3.12,15.726,15.726,0,0,0,3.36,2.49,2.317,2.317,0,0,0,1.89.15,1.284,1.284,0,0,0,.69-.81,1.933,1.933,0,0,0-.27-1.62,29.655,29.655,0,0,0-2.7-3.66,1.7,1.7,0,0,0-1.02-.45,5.977,5.977,0,0,1-1.35-.27,15.168,15.168,0,0,0-3.12-1.41,22.408,22.408,0,0,0,2.4-3.75,3.5,3.5,0,0,1,.6-.57.613.613,0,0,0,.3-.81,6.39,6.39,0,0,0-2.25-2.7.463.463,0,0,0-.69.09,2.947,2.947,0,0,1-1.77,1.2,52.72,52.72,0,0,1,4.68-3.45,2.01,2.01,0,0,1,.93-.45,14.807,14.807,0,0,0,2.22-.75.8.8,0,0,0,.36-.75,2.767,2.767,0,0,0-1.62-2.4.861.861,0,0,0-1.08-.06,25.687,25.687,0,0,0-3.24,1.71,18.235,18.235,0,0,1,2.01-3.54.773.773,0,0,0,.12-.87A3.854,3.854,0,0,0,1110.91.5a.783.783,0,0,0-.87.3,2.266,2.266,0,0,0-.54.72,3.978,3.978,0,0,1-.81.78A20.279,20.279,0,0,0,1105.93,4.16Zm22.02,2.43c0-.84.24-1.2.81-1.11a19.42,19.42,0,0,0,3.6.3,2.912,2.912,0,0,0,1.32-.57,1.313,1.313,0,0,0,.24-.75,12.141,12.141,0,0,0-.3-2.1.587.587,0,0,0-.33-.51,19.909,19.909,0,0,0-3.9-1.32,4.986,4.986,0,0,0-2.28.18,3.071,3.071,0,0,0-.24,2.01,2.374,2.374,0,0,0,.99,1.59C1127.35,4.85,1127.38,5.6,1127.95,6.59Zm-1.77,15.03a22.354,22.354,0,0,0-.57,3.03,2.305,2.305,0,0,0,.27,1.68,10.3,10.3,0,0,0,1.41,1.98,1.07,1.07,0,0,0,.96.33,1.907,1.907,0,0,0,1.29-.81,2.045,2.045,0,0,0,.36-1.5,40.319,40.319,0,0,1-.36-8.07,25.353,25.353,0,0,1,2.67-3.69,6.59,6.59,0,0,0,2.67.63,7.718,7.718,0,0,0,2.04-.18,27.24,27.24,0,0,1-1.14,5.85,3.877,3.877,0,0,1-1.95,1.5l-2.43.06a2.9,2.9,0,0,0-.6,1.11.781.781,0,0,0,.12.96,9.025,9.025,0,0,0,1.98,2.13.813.813,0,0,0,1.02.03,14.28,14.28,0,0,1,6.42-1.35,18.238,18.238,0,0,1,6.03,1.17,1.619,1.619,0,0,0,1.14-.27,3.269,3.269,0,0,0,1.56-2.31.913.913,0,0,0-.18-1.02,6.427,6.427,0,0,0-1.8-1.8,2.406,2.406,0,0,0-1.89-.45c-2.46.3-4.68.69-6.69,1.14a10.943,10.943,0,0,0,2.13-4.11,23.228,23.228,0,0,1,.51-2.55l1.38-1.23,1.71-.63a1.1,1.1,0,0,0,.78-.51l.21-.24a.548.548,0,0,0,.09-.81,5.925,5.925,0,0,0-2.07-2.31.705.705,0,0,0-.99,0l-.27.12c0-.03.06-.9.21-2.61.15-1.68.21-2.61.24-2.76a1.412,1.412,0,0,0-.42-.99,6.789,6.789,0,0,0-3.12-1.83,1.46,1.46,0,0,0-1.53.39,8.577,8.577,0,0,0-1.35,2.13,1.022,1.022,0,0,0,.12.96l.84,1.29a1.3,1.3,0,0,1,.3.81v4.47l-4.32,1.62-1.41.66a6.5,6.5,0,0,0-1.71,1.32l.06-.66a22.937,22.937,0,0,1,2.22-3.15.7.7,0,0,0,.06-.93,5.978,5.978,0,0,0-1.68-1.98,1.13,1.13,0,0,0-.9-.18,3.806,3.806,0,0,0-1.2.63,11.4,11.4,0,0,1-6,2.37l-.39.6a5.27,5.27,0,0,0,3.54,2.46c-.87,1.26-1.83,2.76-2.91,4.5a1.274,1.274,0,0,1-.63.48c-.33.06-.75.15-1.2.21a7.2,7.2,0,0,0,1.23,4.8,1.21,1.21,0,0,0,1.65.18A8.341,8.341,0,0,0,1126.18,21.62Zm37.29-10.71c.27.03.57.09.9.12l-.9.12Zm-4.35-.69a3.818,3.818,0,0,0,1.11,2.79c-.84.51-1.89,1.17-3.12,2.04l-3.09.9a1.911,1.911,0,0,1-.93-.06.649.649,0,0,0-.81.21,20.625,20.625,0,0,0-1.44,2.16c.39-.57.6-.18.6,1.26-.33-.39-.42-.6-.27-.6a5.877,5.877,0,0,1,2.43.57,1.21,1.21,0,0,0,.93-.06c1.65-.81,3.09-1.5,4.32-1.98a36.327,36.327,0,0,0-1.11,4.41,5.267,5.267,0,0,0,.21,2.97,7.418,7.418,0,0,0,3.3,3.69,1.339,1.339,0,0,0,1.11-.15,73.861,73.861,0,0,0,6.87-5.58c2.7,1.35,5.22,2.7,7.5,3.99l.51.18h.6l.96-.48a1.061,1.061,0,0,0,.3-1.38,7.537,7.537,0,0,0-3.24-4.47,1.2,1.2,0,0,0-1.08-.27,6.1,6.1,0,0,1-2.91-.3,18.271,18.271,0,0,0-2.76-.84l1.47-.87c.72-.48,1.38-.96,1.95-1.41a.618.618,0,0,0,.27-.48,1.118,1.118,0,0,0-.18-.45,6.459,6.459,0,0,0-2.49-1.32,2.075,2.075,0,0,0-1.05,0,3.664,3.664,0,0,0-1.32.81l.36.66a1.03,1.03,0,0,1-.09.93l-1.23,1.62a19.544,19.544,0,0,0-3.42-.54,1.105,1.105,0,0,0-.9.21l-.54.6a.7.7,0,0,0,.36.78c1.83.66,3.42,1.38,4.86,2.04a29.516,29.516,0,0,1-4.77,2.52.319.319,0,0,1-.36-.03.487.487,0,0,1-.27-.33,15,15,0,0,1,.54-7.83,31.96,31.96,0,0,1,4.92-1.29,18.727,18.727,0,0,1,7.74-.12,1.907,1.907,0,0,0,1.17-.18l.33-.63a.736.736,0,0,0-.21-.99,11.707,11.707,0,0,0-1.95-1.56,1.313,1.313,0,0,0-1.2-.12,10.376,10.376,0,0,1-2.4.87c-2.7.39-5.31.84-7.83,1.41q3.78-2.07,8.19-3.96a2.05,2.05,0,0,0-1.2-1.95,1.985,1.985,0,0,0-.93-.06,23.743,23.743,0,0,0-5.4,1.74l.03-1.41,4.11-.6a17.465,17.465,0,0,0,3.39-.42.5.5,0,0,0,.33-.81,4.7,4.7,0,0,0-1.56-1.32,1.151,1.151,0,0,0-1.08-.09,10.373,10.373,0,0,1-2.52.84l-2.64.72a3.214,3.214,0,0,0-.27-1.44l3.93-.63a13.038,13.038,0,0,0,4.11-.63.978.978,0,0,0,.33-.48.554.554,0,0,0-.15-.51,8.1,8.1,0,0,0-2.49-1.83.815.815,0,0,0-.93-.03,11.01,11.01,0,0,1-3.06,1.14l-3.3.78a7.284,7.284,0,0,0-1.38-.99.635.635,0,0,0-.93,0,6.054,6.054,0,0,0-1.59,1.92.956.956,0,0,0,.06,1.08A14.4,14.4,0,0,0,1159,6.26a1.144,1.144,0,0,1,.24.87ZM974,80.75a21.867,21.867,0,0,1-.15-2.3c.15.15.45.15.85.1l1.85-.4Zm1.5,6.8a15.218,15.218,0,0,1,2.4-1.3,23.091,23.091,0,0,1,5.75-2.1,7.069,7.069,0,0,0,1.7.9A54.61,54.61,0,0,0,975.5,87.55ZM973.9,68.9a17.125,17.125,0,0,0,3.65-.35c1.35-.25,2.7-.45,4.2-.6a.575.575,0,0,1,.7.7l.15,2.05-1.65-.75a2.593,2.593,0,0,0-1.5-.15A41.166,41.166,0,0,0,974,71.55l.05-1.5A2.99,2.99,0,0,0,973.9,68.9Zm8.9,4.05a41.431,41.431,0,0,1-.1,7.5,1.684,1.684,0,0,0-1.2-.2,30.57,30.57,0,0,0-4.9.85l2.85-2.1a12.308,12.308,0,0,1,2.85-1.9c.3-.25.45-.45.45-.65.15-.3.05-.55-.3-.7a8.475,8.475,0,0,0-1.4-1.3,1.8,1.8,0,0,0-1.25-.15,58.247,58.247,0,0,1-6,2V74.4a24.232,24.232,0,0,1,5.05-.85A18.453,18.453,0,0,0,982.8,72.95Zm.3,18.45a4.479,4.479,0,0,0,2.05,2.4,19.621,19.621,0,0,1,5.75,5.55,3.01,3.01,0,0,0,1.9,1.3,3.542,3.542,0,0,0,2.05-.2,1.289,1.289,0,0,0,.95-1.05l.65-2.05a2.628,2.628,0,0,0-.25-1.95,16.754,16.754,0,0,0-2.1-2.75,5.077,5.077,0,0,0-2.8-1.55A23.948,23.948,0,0,0,983.1,91.4ZM965.45,63a1.918,1.918,0,0,0,1.15,1.25,4.43,4.43,0,0,0,1.95.3l5.7-.85a15.6,15.6,0,0,1-1.45,3.1,3.369,3.369,0,0,0-1.5-1.35,64.623,64.623,0,0,0-3.2,12.6,6.02,6.02,0,0,0,.7,3.65,12.676,12.676,0,0,0,3.85,4.15,4.9,4.9,0,0,0,1.4-1.25l1.5-.05c-1.8,1.3-3.75,2.85-5.75,4.6-2.55.75-4.35,1.2-5.45,1.45a5.748,5.748,0,0,1-2.45-.05l-1.15-.25a1.724,1.724,0,0,0-1.45.4,12.152,12.152,0,0,0-2.6,3.15,2.7,2.7,0,0,0,2.15,1.1l8.6.3a3.046,3.046,0,0,0,1.75-.35,7.484,7.484,0,0,0-.05,1.55,3.751,3.751,0,0,0,.95,2,9.488,9.488,0,0,0,2.55,1.5,1.631,1.631,0,0,0,1.9-.6l5.65-7.55a2.754,2.754,0,0,0-2.5.4,11.747,11.747,0,0,1-3.65,1.35A1.335,1.335,0,0,1,972.4,93a35.1,35.1,0,0,1,14.35-4.05,70.9,70.9,0,0,1,14.1.6,1.681,1.681,0,0,0,1.45-.4,1.873,1.873,0,0,0,.6-.65,1.194,1.194,0,0,0-.05-1.7,7.914,7.914,0,0,0-2.3-2.05,5.532,5.532,0,0,0-2.65-.85,55.917,55.917,0,0,0-7.45.5,2.166,2.166,0,0,0,.7-2l-.35-8.5a6.893,6.893,0,0,1,.7-3.3,1.788,1.788,0,0,0-.05-1.8,3.766,3.766,0,0,0-1.3-1.6,22.379,22.379,0,0,0-4.35-3,2.242,2.242,0,0,0-1.8-.05,15.317,15.317,0,0,1-5.2,1.65,17.011,17.011,0,0,0,2-2.8c.55-.05,3.55-.2,8.95-.5a2.449,2.449,0,0,0,2-.9.634.634,0,0,0,.35-.65,1.148,1.148,0,0,0-.2-.7,25.319,25.319,0,0,0-2.75-2.95,1.856,1.856,0,0,0-2-.3c-1.35.45-2.55.75-3.7,1.05l.15-.5a1.672,1.672,0,0,0-.5-1.95,29.3,29.3,0,0,0-4.35-2.3,2.369,2.369,0,0,0-1.75.2l-1.1,1a1.03,1.03,0,0,0-.15,1.45l.7,1.15-.7,2.4a74,74,0,0,0-8.5,2A3.544,3.544,0,0,0,965.45,63Zm57.7,9.6.15-.55a2.383,2.383,0,0,0-.1-1.65c-.6-1-1.1-1.9-1.5-2.55l1.3.05a54.824,54.824,0,0,1,15.85-3l-1,.75L1037.8,67a13.433,13.433,0,0,1-5,4.6,3.016,3.016,0,0,0-1.5,1.45,34.562,34.562,0,0,0-1.3,3.6,30.011,30.011,0,0,1,6.55-3.95,8.121,8.121,0,0,0,.15,1.95,5.973,5.973,0,0,1,.05,2.3,60.3,60.3,0,0,1-7.55,1.95l-.75,1.55v.5a1.127,1.127,0,0,0,.8.4,42.947,42.947,0,0,0,6.9-.9l-.6,4.8a13.882,13.882,0,0,0-3.15,1.45l-.3.85.3.9a1.48,1.48,0,0,0,1.45.55,53.753,53.753,0,0,1,13.05-1.7,1.175,1.175,0,0,0,1.05-.6,1.142,1.142,0,0,0-.1-1.2c-.65-.95-1.15-1.7-1.5-2.2a1.586,1.586,0,0,0-2.05-.85,10.045,10.045,0,0,0-2.8.65l.7-3.65c3.4-.65,6.4-1.3,9.1-2.1a.95.95,0,0,0,.35-1.35,5.507,5.507,0,0,0-2.4-2.25,3.908,3.908,0,0,0-2.15-.3,36.635,36.635,0,0,0-3.95,1.3l.05-.15a3.119,3.119,0,0,0-.15-1.65,14.9,14.9,0,0,0-1.8-2.35,39.9,39.9,0,0,1,5.05-1.7,1.974,1.974,0,0,0-.65-2,11.108,11.108,0,0,0-3.65-2.15,22.324,22.324,0,0,0,6.6-1.3,1.229,1.229,0,0,0,.5-1.55,8.105,8.105,0,0,0-3.15-4.1,3.241,3.241,0,0,0-2.7-.3,35.325,35.325,0,0,1-6.65,1.95l.05-.35a.958.958,0,0,0-.55-1.3,26.38,26.38,0,0,0-9.05-4.25,1.1,1.1,0,0,0-1.55.5l-.5.7a3.577,3.577,0,0,0,0,2.05,16.388,16.388,0,0,0,4.5,4.25c-2.75.65-5.55,1.45-8.25,2.35a17.356,17.356,0,0,1-5.8.55,1.613,1.613,0,0,0-1.35.65l-1.45,1.55a1,1,0,0,0-.05.85.884.884,0,0,0,.8.6l3,.1a7.66,7.66,0,0,0-.4,3.1,71.933,71.933,0,0,1-3.15,14.15,22.822,22.822,0,0,1-6.2,8.75l-.25,1.35c.4-.35,1.25.15,2.5,1.65-1.3-.4-1.9-.7-1.65-.95a15.177,15.177,0,0,0,7.55-6.15,57.409,57.409,0,0,0,7.3-13.85,5.953,5.953,0,0,0,2.45-.65c-.4,1.45-.75,3.1-1.1,4.8a18.735,18.735,0,0,1-1.4,4.3l.35,1.1a7.539,7.539,0,0,0,1.8-.65,3.194,3.194,0,0,1,1.65-.7,15.822,15.822,0,0,1-.85,2.85l-2.65-.45a6.356,6.356,0,0,0-3.9.6A10.086,10.086,0,0,0,1015.7,89a4.372,4.372,0,0,0,2.65.5,3.875,3.875,0,0,1,1.7.1l3.05.9a13.542,13.542,0,0,1-4.95,4.55,7.088,7.088,0,0,1-2.35.6c-.2,0-.3,0-.35-.05a.5.5,0,0,1-.2-.25c-.35-1.05-1.45-1.85-3.25-2.3,1.4,1.45,2,2.7,1.75,3.75,0,.1.4.65,1.1,1.8l-.85-1.1a16.261,16.261,0,0,0,6.25-.45,13.781,13.781,0,0,0,7.35-4.8,38.981,38.981,0,0,1,5.8,3.25,35.916,35.916,0,0,0,9.35,4.55,8.044,8.044,0,0,0,6-.35,11.354,11.354,0,0,0,4.85-4.25,21.266,21.266,0,0,0-5.9-1.85,18.273,18.273,0,0,1-8.6-2.15,65.973,65.973,0,0,0-9.25-3.4,7.654,7.654,0,0,0,.65-2.5,2.486,2.486,0,0,0-.25-1.95,6.389,6.389,0,0,0-2.6-2.55l-1.35-.15a36.162,36.162,0,0,1,4.4-8,1.26,1.26,0,0,0,.15-1.55,4.77,4.77,0,0,0-3.25-1.85A21.768,21.768,0,0,1,1023.15,72.6Zm81.7,9.1,3.2-.95L1107.5,82a5.239,5.239,0,0,0,.6,4.85.812.812,0,0,0,.7.45,1.148,1.148,0,0,0,.7-.2,7.144,7.144,0,0,1,3.4-1.5l.85.25a18.221,18.221,0,0,1-3.55,6.75,3.118,3.118,0,0,1-3.45,1,24.464,24.464,0,0,1-4.75-1.65,21.549,21.549,0,0,0,3.9-6.6,2.288,2.288,0,0,0-.2-2.45A3.885,3.885,0,0,0,1104.85,81.7Zm-3.5-8.8c.15-.15.45-.45.85-.9l-.15,1.1Zm.35-10.55c.15.55.25,1.5.5,3.05a51.426,51.426,0,0,1-10.2,2.5,1.613,1.613,0,0,0-1.3.45,1.763,1.763,0,0,0-.75,1.25l.3.8a21.485,21.485,0,0,0,5.4-.05,37.521,37.521,0,0,1-11.75,10.8l-.85-.3c-.2-.2-.5-.15-.95.1a.787.787,0,0,0-.2.85,13.986,13.986,0,0,0,.6,1.8.763.763,0,0,0,.55.55.676.676,0,0,0,.75,0,35.357,35.357,0,0,0,15.9-9.8,19.5,19.5,0,0,1,3.35,3.15,38.4,38.4,0,0,0-8.6,4.85,7.321,7.321,0,0,0-2.65,4.3c3.45-1.5,6.5-2.75,9.2-3.7a66.039,66.039,0,0,1-5.7,10.8,4.025,4.025,0,0,1-2.8,1.95l-1.65.3a5.746,5.746,0,0,0,.9,4.5,11.23,11.23,0,0,0,3.9-1.8,37.365,37.365,0,0,0,4.5-4.35,83.925,83.925,0,0,0,8.75,5.5,4.5,4.5,0,0,0,4,.2,7.5,7.5,0,0,0,4.7-5.25,69.138,69.138,0,0,1,2.9-7.5,1.949,1.949,0,0,0-.45-2.45l-3.1-3.1a1.815,1.815,0,0,0-1.85-.65,6.631,6.631,0,0,1-2.25.3l2.1-1.4a2.1,2.1,0,0,0,.25-1.8l-.7-1.75a3.034,3.034,0,0,0-1.6-1.55l-1.8-.75a7.7,7.7,0,0,0-2.3,1.05,16.794,16.794,0,0,0,.25-2.3,30.452,30.452,0,0,1,5.9,2,3.38,3.38,0,0,1,1.9,1.9,32.232,32.232,0,0,1,9.9,1.3l1.25-.55.05-1.4a3.337,3.337,0,0,0-.9-2.3,9.654,9.654,0,0,0-3.75-3.05,5.144,5.144,0,0,0-1.85-.4,51.176,51.176,0,0,1-12.45-1.6l.1-.55a40.385,40.385,0,0,0,9.45-2.4l.4-1.25a5.187,5.187,0,0,0-3.45-3,2.894,2.894,0,0,0-1.85.05,23.62,23.62,0,0,1-4.5,1.45,1.566,1.566,0,0,0-.55-1.3l-1.3-1.15a19.96,19.96,0,0,1,6.7-.1l.75-1.1a1.654,1.654,0,0,0-.3-2,18.314,18.314,0,0,0-7-3.95,1.537,1.537,0,0,0-1.9.8l-.4.7a4.773,4.773,0,0,1-1.5,1.5,67.588,67.588,0,0,1-8.1,4,3.605,3.605,0,0,0-1.8,1.75l-1,1.6c-.25.4-.25.7-.05.85a.88.88,0,0,0,.65.3A56.247,56.247,0,0,1,1101.7,62.35Zm66.45,23a11.111,11.111,0,0,0,2.1-2.35,60.559,60.559,0,0,1,2.4,6.75,12.006,12.006,0,0,1,.3,2.4,6.605,6.605,0,0,1-2.6-2.75A24.364,24.364,0,0,1,1168.15,85.35ZM1167,58.4a7.383,7.383,0,0,0,1.5,2.65,5.448,5.448,0,0,1,1.15,1.95,4.11,4.11,0,0,0,2.5,2.05l1.2.25a1.1,1.1,0,0,0,1.45-.45l.3-.45a2.055,2.055,0,0,0,.35-1.15,4.35,4.35,0,0,0-1.15-2.9,4.651,4.651,0,0,0-2.55-1.2A23.638,23.638,0,0,1,1167,58.4Zm-9.75-4.7a1.243,1.243,0,0,0-1.5.25,3.927,3.927,0,0,0-1,1.7,1.708,1.708,0,0,0,.25,1.55c.9.95,1.5,1.65,1.85,2a2.512,2.512,0,0,1,.7,1.65,75.448,75.448,0,0,0,.7,9.1c-2.25.4-4.65.9-7.15,1.55l1.25-3.6a35.565,35.565,0,0,0,4.95-2.25l.4-1.3a9.818,9.818,0,0,0-1.85-2.5,1.888,1.888,0,0,0-1.35-.25l-.85.25.4-2.4a1.221,1.221,0,0,0-.35-1.35,12.742,12.742,0,0,0-5.6-3.15,1.3,1.3,0,0,0-1.6.65c-.45.65-.85,1.3-1.25,2a1.286,1.286,0,0,0,.25,1.35l.6.5a2.148,2.148,0,0,1,.35,1.25,22.859,22.859,0,0,1-.25,3.35,13.394,13.394,0,0,0-3.75,1,2.172,2.172,0,0,1-1.45.35,1.318,1.318,0,0,0-1.3.7q-.3.9.45,1.2a42.485,42.485,0,0,0,5.1,1.85,28.232,28.232,0,0,1-1.35,4.2,68,68,0,0,0-6.65,2,13.8,13.8,0,0,1-3.3.55,1.3,1.3,0,0,0-1.4,1.05l-.85,2.8a1.341,1.341,0,0,0,1.2,1.3c.75.15,1.9.3,3.35.45a1.7,1.7,0,0,0,1.5-.45,8.9,8.9,0,0,1,1.05-.5l.6-.25a37.5,37.5,0,0,0-1.75,4.25,2.561,2.561,0,0,0,0,2.1,42.052,42.052,0,0,0,2.95,7.6,6.464,6.464,0,0,0,2.75,2.8,1.1,1.1,0,0,0,.8,0,1.589,1.589,0,0,0,.55-.6,11.764,11.764,0,0,0,.95-3.05,4.909,4.909,0,0,0-.35-2.95,34.063,34.063,0,0,1-2.4-6.1,21.011,21.011,0,0,1,6.05-1.4,4.025,4.025,0,0,1-.25,1.65l-2.25,5.25a1.389,1.389,0,0,0,.1,1.25,13.112,13.112,0,0,0,4.75,2.85,1.186,1.186,0,0,0,1.4-.3,4.667,4.667,0,0,0,.75-1.3l2.4-7.95a6.491,6.491,0,0,0,.5-2.05,36,36,0,0,1,.5-6.65,10.809,10.809,0,0,0-2.65,3.45,4.214,4.214,0,0,0-1.9-1.4,1.126,1.126,0,0,0-1.3.05c-2.9,1.45-5.55,2.65-8.15,3.65a14.113,14.113,0,0,1,.15-2.65,71.229,71.229,0,0,1,15.9-4.2,36.606,36.606,0,0,0,2.75,10.3,11.59,11.59,0,0,1-3.8,5.15.8.8,0,0,1-1.15-.05,2.6,2.6,0,0,0-.85,2.3c0,.55.15.75.35.75.15.15.4.15.7,0a33.238,33.238,0,0,0,7.15-3.25,36.581,36.581,0,0,0,6.65,8.55,7.059,7.059,0,0,0,4.6,2l1.55-.5a8.044,8.044,0,0,0,1.1-2.3,2.5,2.5,0,0,0-.05-2.15,74.214,74.214,0,0,0-6.7-13.55l.35-.65a1.671,1.671,0,0,0,.15-1.55,8.813,8.813,0,0,0-2.75-4.35,1.583,1.583,0,0,0-1.6-.6,1.138,1.138,0,0,0-.95,1.15,5.429,5.429,0,0,1-.8,2.8,42.656,42.656,0,0,1-.9-4.75,30.462,30.462,0,0,1,6,.15,2.9,2.9,0,0,0,1.8-.5,8.467,8.467,0,0,0,1.35-1.6,1.02,1.02,0,0,0-.1-1.4,14.445,14.445,0,0,0-3-2.75,1.686,1.686,0,0,0-1.85-.2,31.788,31.788,0,0,1-3.2.85l-1.3.25a50.435,50.435,0,0,0-.55-8.8,4.911,4.911,0,0,1,.05-1.45,1.3,1.3,0,0,0-.6-1.6A17.077,17.077,0,0,0,1157.25,53.7Z" transform="translate(-956.7 -0.26)" fill="#222"/>
</svg>
