<svg xmlns="http://www.w3.org/2000/svg" width="17.047" height="17.047" viewBox="0 0 17.047 17.047">
  <g id="x-lg" transform="translate(-1.999 -1.999)">
    <path id="Path_762" data-name="Path 762" d="M18.837,2.208a.71.71,0,0,1,0,1.006L3.213,18.837a.711.711,0,0,1-1.006-1.006L17.832,2.208a.71.71,0,0,1,1.006,0Z" transform="translate(0 0)" fill="#fff" fill-rule="evenodd"/>
    <path id="Path_763" data-name="Path 763" d="M2.208,2.208a.71.71,0,0,0,0,1.006L17.832,18.837a.711.711,0,1,0,1.006-1.006L3.213,2.208a.71.71,0,0,0-1.006,0Z" transform="translate(0 0)" fill="#fff" fill-rule="evenodd"/>
  </g>
</svg>
